# xmcd
#
# Track frame offsets:
#	150
#	14635
#	24397
#	36662
#	54515
#	66380
#	76510
#	88317
#	99678
#	111248
#	123739
#	136872
#	149662
#	161556
#	178663
#	195747
#	207781
#	218275
#
# Disc length: 3080 seconds
#
# Revision: 2
# Processed by: cddbd v1.5.2PL0 Copyright (c) Steve Scherf et al.
# Submitted via: audiograbber 1.83.01
#
DISCID=090c0612
DTITLE=Jeannie C. Riley - The Very Best Of  
DYEAR=2002
DGENRE=Oldies
TTITLE0=Harper Valley PTA
TTITLE1=The Girl Most Likely
TTITLE2=There Never Was A Time
TTITLE3=The Rib
TTITLE4=The Back Side Of Dallas
TTITLE5=Things Go Better With Love
TTITLE6=Country Girl
TTITLE7=Am I That Easy To Forget
TTITLE8=Duty Not Desire
TTITLE9=The Generation Gap
TTITLE10=Games People Play
TTITLE11=My Man
TTITLE12=Okie From Muskogee
TTITLE13=Oh, Singer
TTITLE14=If You Could Read My Mind
TTITLE15=Good Enough To Be Your Wife
TTITLE16=Help Me Make It Through The Night
TTITLE17=Roses And Thorns
EXTD=
EXTT0=
EXTT1=
EXTT2=
EXTT3=
EXTT4=
EXTT5=
EXTT6=
EXTT7=
EXTT8=
EXTT9=
EXTT10=
EXTT11=
EXTT12=
EXTT13=
EXTT14=
EXTT15=
EXTT16=
EXTT17=
PLAYORDER=
